<?xml version="1.0" encoding="UTF-8" standalone="no"?><!DOCTYPE svg PUBLIC "-//W3C//DTD SVG 1.1//EN" "http://www.w3.org/Graphics/SVG/1.1/DTD/svg11.dtd"><svg width="100%" height="100%" viewBox="0 0 66 66" version="1.1" xmlns="http://www.w3.org/2000/svg" xmlns:xlink="http://www.w3.org/1999/xlink" xml:space="preserve" xmlns:serif="http://www.serif.com/" style="fill-rule:evenodd;clip-rule:evenodd;stroke-linecap:round;stroke-linejoin:round;stroke-miterlimit:1.5;"><circle cx="33" cy="33" r="32.5" style="fill:none;stroke:#00adfc;stroke-width:1px;"/><path d="M45,29.876c0,-2.151 -1.747,-3.898 -3.898,-3.898l-16.204,0c-2.151,0 -3.898,1.747 -3.898,3.898l0,12.72c0,2.151 1.747,3.898 3.898,3.898l16.204,0c2.151,0 3.898,-1.747 3.898,-3.898l0,-12.72Z" style="fill:none;stroke:#00adfc;stroke-width:1px;"/><path d="M41.181,23.953l-0.122,2.025l-16.056,0l-0.184,-2.025c0,-4.515 3.666,-8.181 8.181,-8.181c4.515,0 8.18,3.666 8.181,8.181Z" style="fill:none;stroke:#00adfc;stroke-width:1px;"/><circle cx="33" cy="36.236" r="2.949" style="fill:none;stroke:#fff;stroke-width:1px;"/></svg>