<?xml version="1.0" encoding="UTF-8" standalone="no"?><!DOCTYPE svg PUBLIC "-//W3C//DTD SVG 1.1//EN" "http://www.w3.org/Graphics/SVG/1.1/DTD/svg11.dtd"><svg width="100%" height="100%" viewBox="0 0 1001 294" version="1.1" xmlns="http://www.w3.org/2000/svg" xmlns:xlink="http://www.w3.org/1999/xlink" xml:space="preserve" xmlns:serif="http://www.serif.com/" style="fill-rule:evenodd;clip-rule:evenodd;stroke-linejoin:round;stroke-miterlimit:1.41421;"><g><path d="M748.855,85.94c-2.688,5.137 -4.192,7.845 -5.542,10.629c-29.638,61.054 -59.192,122.154 -89.063,183.1c-1.65,3.362 -5.962,7.521 -9.012,7.504c-3.063,-0.021 -7.304,-4.213 -8.958,-7.592c-29.875,-60.937 -59.438,-122.033 -89.08,-183.087c-1.345,-2.767 -2.841,-5.463 -5.495,-10.542c-9.53,68.758 -18.688,134.842 -27.896,201.313l-27.846,0c2.312,-16.155 4.562,-32.046 6.867,-47.93c7.475,-51.441 15,-102.879 22.445,-154.325c3.442,-23.795 6.638,-47.625 10.275,-71.387c0.4,-2.596 3.005,-4.85 4.588,-7.263c2.296,2.3 5.417,4.2 6.767,6.963c34.604,70.925 69.02,141.937 103.479,212.933c1.408,2.896 2.891,5.754 4.987,9.913c12.984,-26.725 25.434,-52.325 37.854,-77.938c23.388,-48.212 46.809,-96.408 70.067,-144.683c2.471,-5.117 4.763,-9.304 12.575,-6.063c12.854,92.609 25.796,185.846 38.825,279.709l-27.85,0c-9.171,-65.925 -18.367,-132.084 -27.987,-201.254" style="fill:#8c03ff;fill-rule:nonzero;"/><path d="M419.065,217.412c7.18,5.417 14.388,10.858 21.559,16.271c-27.879,47.412 -102.038,71.762 -166.325,54.887c-61.704,-16.195 -104.492,-70.983 -107.188,-133.112c-3.646,-84.017 52.467,-133.388 102.688,-148.508c64.191,-19.33 139.379,3.545 170.95,53.025c-6.971,5.391 -14.025,10.854 -21.721,16.812c-27.704,-34.696 -63.979,-50.583 -107.542,-48.654c-33.821,1.5 -63.333,14.392 -86.437,39.479c-43.267,46.983 -39.667,122.425 6.9,166.196c43.121,40.537 131.937,51.212 187.116,-16.396" style="fill:#00adfc;fill-rule:nonzero;"/><path d="M833.085,231.995c8.863,-5.3 16.329,-9.766 23.983,-14.35c6.275,8.842 11.775,17.638 18.305,25.584c18.562,22.583 42.787,28.596 67.954,17.462c29.662,-13.116 38.916,-46.358 17.716,-70.696c-13.754,-15.783 -30.758,-28.816 -46.795,-42.508c-13.105,-11.187 -27.771,-20.633 -40.288,-32.396c-37.5,-35.254 -27.2,-91.841 19.638,-109.791c21.466,-8.225 42.87,-6.771 63.27,3.629c16.267,8.296 28.18,21.566 39.2,36.783c-7.55,5.796 -14.716,11.292 -22.345,17.146c-6.213,-6.704 -11.967,-13.646 -18.471,-19.796c-13.363,-12.633 -29.05,-18.054 -47.459,-13.6c-25.037,6.058 -36.508,30.483 -23.708,53.021c4.829,8.508 12.2,16.092 19.817,22.412c23,19.096 47.487,36.467 69.833,56.271c16.154,14.317 26.067,33.271 26.263,55.809c0.345,40.17 -34.109,75.15 -74.513,76.754c-31.125,1.229 -55.679,-10.788 -74.45,-35.046c-6.337,-8.183 -11.612,-17.192 -17.95,-26.688" style="fill:#ff00f5;fill-rule:nonzero;"/><path d="M0,6.778l0,280.508l135.513,0l0,-27.254l-109.096,0l0,-253.254l-26.417,0Z" style="fill:#36d62e;fill-rule:nonzero;"/></g></svg>