<svg xmlns="http://www.w3.org/2000/svg" viewBox="0 0 60 17.64"><defs><style>.cls-1{fill:#fff;}</style></defs><title>Asset 1</title><g id="Layer_2" data-name="Layer 2"><g id="Layer_1-2" data-name="Layer 1"><path class="cls-1" d="M44.93,5.16l-.33.64q-2.67,5.49-5.34,11c-.1.2-.36.45-.54.45s-.44-.25-.54-.45q-2.69-5.49-5.35-11c-.08-.17-.17-.33-.33-.63L30.83,17.24H29.16c.14-1,.27-1.92.41-2.88q.67-4.63,1.35-9.26c.21-1.43.4-2.86.62-4.28,0-.16.18-.29.27-.44.14.14.33.25.41.42q3.11,6.38,6.21,12.78l.3.6L41,9.49Q43.1,5.15,45.2.81c.15-.31.29-.56.76-.36l2.33,16.78H46.61L44.93,5.16"/><path class="cls-1" d="M25.14,13l1.29,1c-1.67,2.85-6.12,4.31-10,3.29a8.65,8.65,0,0,1-6.43-8A8.68,8.68,0,0,1,16.19.42C20-.74,24.55.63,26.44,3.6l-1.3,1a7.44,7.44,0,0,0-6.45-2.92A7.26,7.26,0,0,0,13.5,4.06a7.17,7.17,0,0,0,.41,10,7.78,7.78,0,0,0,11.23-1"/><path class="cls-1" d="M50,13.92l1.44-.86c.38.53.71,1.06,1.1,1.53a3.26,3.26,0,0,0,4.08,1,2.63,2.63,0,0,0,1.06-4.24,26,26,0,0,0-2.81-2.55c-.79-.67-1.67-1.24-2.42-1.94A3.86,3.86,0,0,1,53.62.32a4.52,4.52,0,0,1,3.8.22,6.79,6.79,0,0,1,2.35,2.21l-1.34,1c-.37-.4-.72-.82-1.11-1.19a2.94,2.94,0,0,0-2.85-.82A2.1,2.1,0,0,0,53,4.95a5.09,5.09,0,0,0,1.19,1.35c1.38,1.15,2.85,2.19,4.19,3.38A4.45,4.45,0,0,1,60,13a4.71,4.71,0,0,1-4.47,4.61,5.1,5.1,0,0,1-4.47-2.1c-.38-.49-.7-1-1.08-1.6"/><polygon class="cls-1" points="0 0.41 0 17.24 8.13 17.24 8.13 15.6 1.58 15.6 1.58 0.41 0 0.41"/></g></g></svg>