<?xml version="1.0" encoding="UTF-8" standalone="no"?><!DOCTYPE svg PUBLIC "-//W3C//DTD SVG 1.1//EN" "http://www.w3.org/Graphics/SVG/1.1/DTD/svg11.dtd"><svg width="100%" height="100%" viewBox="0 0 66 66" version="1.1" xmlns="http://www.w3.org/2000/svg" xmlns:xlink="http://www.w3.org/1999/xlink" xml:space="preserve" xmlns:serif="http://www.serif.com/" style="fill-rule:evenodd;clip-rule:evenodd;stroke-linecap:round;stroke-linejoin:round;stroke-miterlimit:1.5;"><circle cx="33" cy="33" r="32.5" style="fill:none;stroke:#36d62e;stroke-width:1px;"/><path d="M33,24.193l0,8.111l-14.279,0l0,7.503" style="fill:none;stroke:#fff;stroke-width:1px;"/><path d="M47.279,39.807l0,-7.503l-14.279,0l0,7.503" style="fill:none;stroke:#fff;stroke-width:1px;"/><path d="M38.627,18.875c0,-0.688 -0.559,-1.247 -1.247,-1.247l-8.76,0c-0.688,0 -1.247,0.559 -1.247,1.247l0,4.071c0,0.688 0.559,1.247 1.247,1.247l8.76,0c0.688,0 1.247,-0.559 1.247,-1.247l0,-4.071Z" style="fill:none;stroke:#36d62e;stroke-width:1px;"/><path d="M36.75,41.054c0,-0.688 -0.559,-1.247 -1.247,-1.247l-5.006,0c-0.688,0 -1.247,0.559 -1.247,1.247l0,4.071c0,0.688 0.559,1.247 1.247,1.247l5.006,0c0.688,0 1.247,-0.559 1.247,-1.247l0,-4.071Z" style="fill:none;stroke:#36d62e;stroke-width:1px;"/><path d="M22.471,41.054c0,-0.688 -0.559,-1.247 -1.248,-1.247l-5.005,0c-0.689,0 -1.247,0.559 -1.247,1.247l0,4.071c0,0.688 0.558,1.247 1.247,1.247l5.005,0c0.689,0 1.248,-0.559 1.248,-1.247l0,-4.071Z" style="fill:none;stroke:#36d62e;stroke-width:1px;"/><path d="M51.029,41.054c0,-0.688 -0.558,-1.247 -1.247,-1.247l-5.005,0c-0.689,0 -1.248,0.559 -1.248,1.247l0,4.071c0,0.688 0.559,1.247 1.248,1.247l5.005,0c0.689,0 1.247,-0.559 1.247,-1.247l0,-4.071Z" style="fill:none;stroke:#36d62e;stroke-width:1px;"/></svg>