<?xml version="1.0" encoding="UTF-8" standalone="no"?><!DOCTYPE svg PUBLIC "-//W3C//DTD SVG 1.1//EN" "http://www.w3.org/Graphics/SVG/1.1/DTD/svg11.dtd"><svg width="100%" height="100%" viewBox="0 0 66 66" version="1.1" xmlns="http://www.w3.org/2000/svg" xmlns:xlink="http://www.w3.org/1999/xlink" xml:space="preserve" xmlns:serif="http://www.serif.com/" style="fill-rule:evenodd;clip-rule:evenodd;stroke-linecap:round;stroke-linejoin:round;stroke-miterlimit:1.5;"><circle cx="33" cy="33" r="32.5" style="fill:none;stroke:#ff00f5;stroke-width:1px;"/><circle cx="23.032" cy="31.5" r="3.5" style="fill:none;stroke:#ff00f5;stroke-width:1px;"/><path d="M18.032,48c0,0 0,-4.311 0,-7.272c0,-0.724 0.288,-1.417 0.799,-1.929c0.512,-0.512 1.206,-0.799 1.929,-0.799c2.961,0 7.272,0 7.272,0l4.608,1.833c0,0 1.29,-2.239 2.257,-3.915c0.272,-0.472 0.725,-0.811 1.253,-0.94c0.529,-0.13 1.087,-0.037 1.546,0.257c0,0 0.001,0 0.002,0.001c0.888,0.568 1.154,1.744 0.598,2.639c-1.407,2.264 -3.796,6.107 -3.796,6.107l-6.468,-2.064l0,6.082l17.936,0l0,-30.279l-22.936,0l0,10.279" style="fill:none;stroke:#ff00f5;stroke-width:1px;"/><path d="M29.586,23.917l7.017,0" style="fill:none;stroke:#fff;stroke-width:1px;"/><path d="M29.586,28.672l11.768,0" style="fill:none;stroke:#fff;stroke-width:1px;"/></svg>