<?xml version="1.0" encoding="UTF-8" standalone="no"?><!DOCTYPE svg PUBLIC "-//W3C//DTD SVG 1.1//EN" "http://www.w3.org/Graphics/SVG/1.1/DTD/svg11.dtd"><svg width="100%" height="100%" viewBox="0 0 150 150" version="1.1" xmlns="http://www.w3.org/2000/svg" xmlns:xlink="http://www.w3.org/1999/xlink" xml:space="preserve" xmlns:serif="http://www.serif.com/" style="fill-rule:evenodd;clip-rule:evenodd;stroke-linejoin:round;stroke-miterlimit:1.41421;"><path d="M138.9,0l-127.838,0c-6.1,0 -11.062,4.842 -11.062,10.817l0,128.358c0,5.975 4.962,10.825 11.062,10.825l127.838,0c6.117,0 11.096,-4.85 11.096,-10.825l0,-128.358c0,-5.975 -4.979,-10.817 -11.096,-10.817m-94.404,127.817l-22.271,0l0,-71.584l22.271,0l0,71.584Zm-11.129,-81.363c-7.146,0 -12.909,-5.779 -12.909,-12.904c0,-7.121 5.763,-12.9 12.909,-12.9c7.116,0 12.895,5.779 12.895,12.9c0,7.125 -5.779,12.904 -12.895,12.904m94.454,81.363l-22.246,0l0,-34.813c0,-8.3 -0.142,-18.979 -11.558,-18.979c-11.58,0 -13.346,9.046 -13.346,18.387l0,35.405l-22.221,0l0,-71.584l21.329,0l0,9.788l0.304,0c2.967,-5.629 10.225,-11.563 21.05,-11.563c22.525,0 26.688,14.821 26.688,34.1l0,39.259Z" style="fill:#fff;fill-rule:nonzero;"/></svg>