<?xml version="1.0" encoding="UTF-8" standalone="no"?><!DOCTYPE svg PUBLIC "-//W3C//DTD SVG 1.1//EN" "http://www.w3.org/Graphics/SVG/1.1/DTD/svg11.dtd"><svg width="100%" height="100%" viewBox="0 0 275 275" version="1.1" xmlns="http://www.w3.org/2000/svg" xmlns:xlink="http://www.w3.org/1999/xlink" xml:space="preserve" xmlns:serif="http://www.serif.com/" style="fill-rule:evenodd;clip-rule:evenodd;stroke-linecap:round;stroke-linejoin:round;stroke-miterlimit:1.5;"><circle cx="137.5" cy="137.5" r="135.417" style="fill:none;stroke:#1e212c;stroke-width:4.17px;"/><path d="M170.474,146.391c5.781,0.619 11.218,4.688 16.734,8.362c7.436,4.953 16.501,10.668 17.613,18.169c0.544,3.667 -1.757,6.949 -3.665,9.824c-4.9,7.381 -12.23,13.261 -21.135,15.036c0,0 -2.167,-0.072 -2.167,-0.072c-0.638,-0.02 -1.275,-0.051 -1.913,-0.086c-0.73,-0.044 -1.458,-0.098 -2.186,-0.159c-23.788,-2.195 -45.624,-15.503 -63.098,-32.506c-16.632,-16.185 -29.688,-36.83 -32.013,-59.183c-1.276,-12.268 9.265,-23.793 21.422,-28.008c11.435,-3.964 24.418,16.074 30.292,27.012c1.554,2.893 2.598,6.692 0.327,9.645c-4.013,5.217 -11.635,6.746 -17.051,11.837c-1.654,1.554 0.855,4.235 2.563,6.999c8.302,13.217 19.84,24.393 34.344,30.847c0.25,0.111 0.503,0.214 0.761,0.306c4.507,1.593 6.406,-10.394 14.979,-16.782c1.172,-0.873 2.632,-1.333 4.193,-1.241Zm-67.311,-65.035c-10.008,0.607 -20.146,11.975 -20.521,20.82c-0.444,10.478 3.737,21.112 8.872,30.599c17.762,32.812 51.117,59.656 87.013,60.787c0,0 6.113,-0.655 10.977,-4.262c6.531,-4.844 12.855,-13.12 10.727,-17.074c-5.65,-10.498 -19.716,-17.982 -29.631,-21.584c-5.774,-1.777 -8.315,16.719 -17.436,18.114c-4.938,0.756 -8.243,-2.709 -12.436,-5.304c-12.616,-7.808 -22.649,-19.065 -30.447,-31.914c-0.197,-0.341 -0.388,-0.683 -0.566,-1.033c-0.716,-1.461 -1.161,-3.143 -0.671,-4.698c2.004,-6.365 11.926,-6.836 18.097,-13.636c2.058,-2.268 -0.738,-6.181 -3.067,-9.976c-4.551,-7.419 -10.327,-14.095 -17.205,-19.468c-1.079,-0.812 -2.309,-1.405 -3.706,-1.371Z" style="fill:#1e212c;fill-rule:nonzero;"/></svg>