<?xml version="1.0" encoding="UTF-8" standalone="no"?><!DOCTYPE svg PUBLIC "-//W3C//DTD SVG 1.1//EN" "http://www.w3.org/Graphics/SVG/1.1/DTD/svg11.dtd"><svg width="100%" height="100%" viewBox="0 0 150 150" version="1.1" xmlns="http://www.w3.org/2000/svg" xmlns:xlink="http://www.w3.org/1999/xlink" xml:space="preserve" xmlns:serif="http://www.serif.com/" style="fill-rule:evenodd;clip-rule:evenodd;stroke-linejoin:round;stroke-miterlimit:1.41421;"><path d="M138.9,150l-127.837,0c-6.1,0 -11.063,-4.85 -11.063,-10.825l0,-128.358c0,-5.975 4.962,-10.817 11.063,-10.817l127.837,0c6.117,0 11.096,4.842 11.096,10.817l0,128.358c0,5.975 -4.979,10.825 -11.096,10.825Zm-82.085,-32.217c36.988,0 57.217,-30.646 57.217,-57.217c0,-0.871 -0.017,-1.737 -0.058,-2.6c3.929,-2.837 7.341,-6.379 10.033,-10.412c-3.604,1.6 -7.479,2.679 -11.55,3.166c4.154,-2.491 7.342,-6.429 8.846,-11.125c-3.888,2.305 -8.192,3.98 -12.771,4.88c-3.671,-3.909 -8.896,-6.35 -14.679,-6.35c-11.104,0 -20.113,9.004 -20.113,20.108c0,1.575 0.175,3.112 0.521,4.583c-16.712,-0.841 -31.533,-8.841 -41.45,-21.008c-1.729,2.971 -2.725,6.421 -2.725,10.104c0,6.979 3.554,13.138 8.95,16.742c-3.296,-0.104 -6.396,-1.009 -9.108,-2.517c-0.004,0.083 -0.004,0.167 -0.004,0.254c0,9.742 6.933,17.875 16.133,19.717c-1.687,0.458 -3.467,0.708 -5.3,0.708c-1.296,0 -2.554,-0.129 -3.779,-0.362c2.558,7.987 9.983,13.804 18.783,13.966c-6.883,5.396 -15.554,8.609 -24.975,8.609c-1.621,0 -3.221,-0.092 -4.796,-0.279c8.9,5.704 19.467,9.033 30.825,9.033Z" style="fill:#fff;"/></svg>